<svg xmlns="http://www.w3.org/2000/svg" viewBox="0 0 860 220" width="860" height="220"><style>@import url("https://fonts.googleapis.com/css2?family=Playfair+Display:wght@400&amp;family=Montserrat:wght@500&amp;display=swap");</style><g transform="translate(20,20)"><g stroke-linejoin="round" stroke-linecap="round">
<path d="M14 62 L92 12 L170 62 Z" fill="#f5e3bd" stroke="#d6a468" stroke-width="4"/>

<rect x="14" y="62" width="156" height="104" rx="5" fill="#f5e3bd" stroke="#d6a468" stroke-width="4"/>
<path d="M14 62 L92 116 L170 62 M14 166 L76 105 M170 166 L108 105" fill="none" stroke="#d6a468" stroke-width="3.5"/>

<g transform="translate(1.80,-89.25) scale(0.244,0.27)" stroke="none"><path d="M532.0 345.4 C530.0 345.7 528.0 346.2 526.0 346.8 C524.0 347.4 522.0 348.4 520.0 349.1 C518.0 349.9 516.0 350.6 514.0 351.3 C512.0 352.1 510.0 352.6 508.0 353.7 C506.0 354.8 504.0 356.4 502.0 358.0 C500.0 359.6 497.9 361.4 496.0 363.2 C494.1 365.1 492.1 367.0 490.6 369.0 C489.0 371.0 487.8 373.0 486.6 375.0 C485.3 377.0 483.9 379.0 483.0 381.0 C482.1 383.0 481.4 385.0 480.9 387.0 C480.3 389.0 480.1 391.0 479.7 393.0 C479.2 395.0 478.7 397.0 478.1 399.0 C477.6 401.0 476.7 403.0 476.3 405.0 C476.0 407.0 476.1 409.0 476.0 411.0 C475.9 413.0 475.9 415.0 476.0 417.0 C476.1 419.0 476.5 421.0 476.8 423.0 C477.1 425.0 477.7 427.0 477.8 429.0 C477.9 431.0 477.6 433.0 477.4 435.0 C477.3 437.0 476.6 439.0 476.8 441.0 C477.0 443.0 477.6 445.1 478.7 447.0 C479.7 448.9 481.5 450.5 482.9 452.3 C484.3 454.2 485.7 456.1 487.2 458.0 C488.8 459.9 490.3 462.0 492.1 464.0 C493.9 466.0 496.1 468.0 498.0 470.0 C499.9 472.0 501.8 474.0 503.6 476.0 C505.4 478.0 507.0 480.0 508.8 482.0 C510.5 484.0 512.2 486.0 514.1 488.0 C516.0 490.0 518.0 492.0 520.0 493.9 C522.0 495.8 524.0 497.4 526.0 499.2 C528.0 501.1 530.0 503.1 532.0 505.0 C534.0 506.9 536.2 508.7 538.0 510.6 C539.8 512.4 542.1 514.3 542.9 516.0 C543.6 517.7 543.4 520.0 542.4 520.9 C541.5 521.8 538.9 521.4 537.0 521.3 C535.1 521.3 533.0 520.8 531.0 520.6 C529.0 520.3 527.0 520.2 525.0 520.0 C523.0 519.8 521.0 519.6 519.0 519.4 C517.0 519.3 515.0 519.2 513.0 518.9 C511.0 518.6 509.0 518.4 507.0 517.8 C505.0 517.2 503.0 516.1 501.0 515.3 C499.0 514.6 497.0 513.9 495.0 513.4 C493.0 513.0 491.0 513.1 489.0 512.8 C487.0 512.5 485.0 512.0 483.0 511.7 C481.0 511.3 479.0 511.0 477.0 510.6 C475.0 510.1 473.0 509.7 471.0 509.1 C469.0 508.6 467.0 507.8 465.0 507.2 C463.0 506.6 461.0 505.8 459.0 505.4 C457.0 505.1 455.0 505.1 453.0 505.0 C451.0 504.9 449.0 505.0 447.0 505.0 C445.0 505.0 443.0 504.9 441.0 505.1 C439.0 505.3 437.0 505.6 435.0 506.1 C433.0 506.6 431.0 507.4 429.0 508.0 C427.0 508.6 425.0 509.1 423.0 509.7 C421.0 510.2 419.0 510.5 417.0 511.1 C415.0 511.7 413.0 512.4 411.0 513.3 C409.0 514.3 407.0 515.7 405.0 516.9 C403.0 518.0 401.0 519.1 399.0 520.2 C397.0 521.3 395.0 522.5 393.0 523.6 C391.0 524.6 389.0 525.7 387.0 526.8 C385.0 527.8 383.0 528.7 381.0 529.8 C379.0 530.8 377.0 531.9 375.0 533.1 C373.0 534.3 371.0 535.7 369.0 537.0 C367.0 538.3 365.0 539.5 363.0 540.7 C361.0 541.8 359.0 542.7 357.0 543.9 C355.0 545.1 353.0 546.6 351.0 547.9 C349.0 549.2 347.0 550.4 345.0 551.7 C343.0 552.9 341.0 554.0 339.0 555.3 C337.0 556.6 335.0 558.1 333.0 559.6 C331.0 561.0 328.9 562.6 327.0 564.2 C325.1 565.9 323.2 567.5 321.3 569.3 C319.5 571.1 317.8 573.1 316.0 575.0 C314.2 576.9 312.5 579.1 310.7 580.8 C308.9 582.5 306.5 583.7 305.1 585.2 C303.7 586.8 302.6 588.2 302.2 590.0 C301.8 591.8 302.7 594.0 302.7 596.0 C302.6 598.0 302.3 600.0 302.0 602.0 C301.7 604.0 301.3 606.0 300.9 608.0 C300.5 610.0 300.2 612.0 299.8 614.0 C299.4 616.0 298.7 618.0 298.4 620.0 C298.1 622.0 298.1 624.0 298.0 626.0 C297.9 628.0 298.0 630.0 298.0 632.0 C298.0 634.0 297.9 636.0 298.0 638.0 C298.1 640.0 298.3 642.0 298.6 644.0 C298.8 646.0 299.3 648.0 299.6 650.0 C299.9 652.0 300.1 654.0 300.3 656.0 C300.6 658.0 300.8 660.0 301.1 662.0 C301.4 664.0 301.6 666.0 302.0 668.0 C302.4 670.0 302.9 672.0 303.3 674.0 C303.7 676.0 304.1 678.0 304.4 680.0 C304.8 682.0 304.9 684.0 305.3 686.0 C305.8 688.0 306.5 690.0 307.2 692.0 C307.9 694.0 308.7 696.0 309.4 698.0 C310.2 700.0 310.9 702.0 311.7 704.0 C312.4 706.0 313.1 708.0 313.9 710.0 C314.7 712.0 315.7 714.0 316.6 716.0 C317.4 718.0 317.8 720.1 318.8 722.0 C319.7 723.9 320.8 725.6 322.3 727.2 C323.9 728.8 326.1 730.1 328.0 731.6 C329.9 733.0 332.1 734.3 334.0 735.7 C335.9 737.0 337.8 738.2 339.7 739.6 C341.5 740.9 343.1 742.9 345.0 744.0 C346.9 745.1 349.0 745.6 351.0 745.9 C353.0 746.2 355.0 746.0 357.0 746.0 C359.0 746.0 361.0 746.1 363.0 746.0 C365.0 745.9 367.0 745.8 369.0 745.7 C371.0 745.5 373.0 745.2 375.0 745.0 C377.0 744.8 379.0 744.9 381.0 744.7 C383.0 744.5 385.0 744.2 387.0 743.9 C389.0 743.5 391.0 743.3 393.0 742.6 C395.0 741.8 397.0 740.5 399.0 739.6 C401.0 738.6 403.0 737.5 405.0 736.7 C407.0 735.8 409.0 734.8 411.0 734.4 C413.0 734.1 415.2 734.6 417.0 734.6 C418.8 734.5 420.8 735.0 421.9 734.1 C423.0 733.2 422.7 730.7 423.6 729.0 C424.4 727.3 425.6 725.2 427.1 723.7 C428.6 722.1 431.5 721.2 432.7 719.6 C433.8 717.9 434.4 715.9 434.1 714.0 C433.8 712.1 431.9 710.0 430.7 708.0 C429.5 706.0 428.1 704.0 426.9 702.0 C425.7 700.0 424.6 698.0 423.4 696.0 C422.3 694.0 420.9 692.0 419.8 690.0 C418.6 688.0 417.4 686.0 416.4 684.0 C415.5 682.0 415.1 680.0 414.3 678.0 C413.6 676.0 412.6 674.0 411.9 672.0 C411.1 670.0 410.4 668.0 409.8 666.0 C409.1 664.0 408.6 662.0 408.0 660.0 C407.4 658.0 406.8 656.0 406.1 654.0 C405.4 652.0 404.4 650.0 403.7 648.0 C402.9 646.0 402.3 644.0 401.7 642.0 C401.1 640.0 400.6 638.0 400.1 636.0 C399.6 634.0 399.0 632.0 398.7 630.0 C398.3 628.0 398.1 626.0 398.0 624.0 C397.9 622.0 398.0 620.0 397.8 618.0 C397.6 616.0 397.2 614.0 396.8 612.0 C396.4 610.0 395.7 608.0 395.4 606.0 C395.1 604.0 394.8 601.9 395.0 600.0 C395.2 598.1 395.6 595.8 396.8 594.3 C397.9 592.9 400.1 591.9 402.0 591.3 C403.9 590.8 406.0 591.1 408.0 591.0 C410.0 590.9 412.0 591.0 414.0 591.0 C416.0 591.0 418.0 591.0 420.0 591.0 C422.0 591.0 424.0 591.0 426.0 591.0 C428.0 591.0 430.0 590.9 432.0 591.0 C434.0 591.1 436.0 591.4 438.0 591.8 C440.0 592.1 442.0 592.6 444.0 593.0 C446.0 593.4 448.0 593.6 450.0 594.1 C452.0 594.6 454.0 595.4 456.0 596.0 C458.0 596.6 460.0 597.4 462.0 597.9 C464.0 598.4 466.0 598.5 468.0 598.8 C470.0 599.1 472.0 599.4 474.0 599.7 C476.0 600.0 478.0 600.2 480.0 600.6 C482.0 600.9 484.0 601.4 486.0 602.0 C488.0 602.6 490.0 603.6 492.0 604.2 C494.0 604.9 496.0 605.6 498.0 606.0 C500.0 606.4 502.0 606.6 504.0 606.9 C506.0 607.1 508.0 607.4 510.0 607.6 C512.0 607.7 514.0 607.9 516.0 608.0 C518.0 608.1 520.0 608.0 522.0 608.0 C524.0 608.0 526.0 607.9 528.0 608.0 C530.0 608.1 532.0 608.5 534.0 608.7 C536.0 608.8 538.0 609.1 540.0 609.0 C542.0 608.9 544.0 608.5 546.0 608.1 C548.0 607.7 550.0 607.2 552.0 606.7 C554.0 606.1 556.0 605.6 558.0 604.9 C560.0 604.2 562.0 603.4 564.0 602.6 C566.0 601.7 568.0 600.7 570.0 599.8 C572.0 598.9 574.0 598.0 576.0 597.1 C578.0 596.3 580.0 595.4 582.0 594.7 C584.0 593.9 586.0 593.4 588.0 592.7 C590.0 591.9 592.1 591.4 594.0 590.2 C595.9 589.1 598.0 587.6 599.6 585.9 C601.1 584.2 601.9 582.0 603.3 580.0 C604.7 578.0 606.2 576.0 608.0 574.0 C609.8 572.0 612.0 570.0 614.0 568.0 C616.0 566.0 618.0 563.8 620.0 562.0 C622.0 560.2 624.1 558.7 626.0 557.0 C627.9 555.3 629.8 553.8 631.4 552.0 C633.1 550.2 634.4 548.0 635.7 546.0 C637.0 544.0 637.9 542.0 639.3 540.0 C640.7 538.0 642.2 535.9 644.0 534.0 C645.8 532.1 648.0 530.3 650.0 528.4 C652.0 526.6 654.0 524.9 656.0 523.0 C658.0 521.1 660.0 519.0 661.9 517.0 C663.8 515.0 665.4 513.0 667.2 511.0 C669.1 509.0 671.1 507.0 673.0 505.0 C674.9 503.0 676.8 501.0 678.7 499.1 C680.5 497.2 682.1 495.6 684.0 493.8 C685.9 491.9 688.0 490.0 690.0 488.0 C692.0 486.0 694.0 484.0 696.0 482.0 C698.0 480.0 699.9 477.9 701.8 476.0 C703.6 474.1 705.3 472.5 707.1 470.7 C708.9 468.8 711.1 466.9 712.8 465.0 C714.5 463.1 716.0 461.0 717.4 459.0 C718.9 457.0 720.1 455.0 721.3 453.0 C722.5 451.0 723.7 449.0 724.7 447.0 C725.6 445.0 726.2 443.0 727.0 441.0 C727.8 439.0 728.5 437.0 729.3 435.0 C730.2 433.0 731.4 431.0 732.0 429.0 C732.6 427.0 732.8 425.0 733.0 423.0 C733.2 421.0 733.0 419.0 733.0 417.0 C733.0 415.0 733.0 413.0 733.0 411.0 C733.0 409.0 733.1 407.0 732.9 405.0 C732.7 403.0 732.4 401.0 731.8 399.0 C731.2 397.0 730.1 395.0 729.3 393.0 C728.5 391.0 727.8 389.0 727.0 387.0 C726.2 385.0 725.6 383.0 724.7 381.0 C723.7 379.0 722.6 377.0 721.3 375.0 C720.1 373.0 718.8 370.9 717.3 369.0 C715.9 367.1 714.5 365.1 712.8 363.4 C711.1 361.8 709.0 360.4 707.0 359.0 C705.0 357.6 703.0 356.0 701.0 354.8 C699.0 353.6 697.0 352.8 695.0 351.9 C693.0 351.0 691.0 350.1 689.0 349.3 C687.0 348.5 685.0 347.6 683.0 347.0 C681.0 346.4 679.0 345.9 677.0 345.6 C675.0 345.2 673.0 345.1 671.0 345.0 C669.0 344.9 667.0 344.9 665.0 345.0 C663.0 345.1 661.0 345.1 659.0 345.3 C657.0 345.6 655.0 346.0 653.0 346.6 C651.0 347.1 649.0 348.0 647.0 348.8 C645.0 349.6 643.0 350.5 641.0 351.2 C639.0 352.0 637.0 352.4 635.0 353.3 C633.0 354.3 631.0 355.6 629.0 357.1 C627.0 358.6 624.9 360.4 623.0 362.2 C621.1 364.0 619.1 366.0 617.3 368.0 C615.6 370.0 614.1 372.1 612.3 374.0 C610.6 375.9 608.9 378.5 607.0 379.7 C605.1 380.8 603.0 381.4 601.2 380.8 C599.4 380.2 598.0 377.8 596.3 376.0 C594.7 374.2 593.2 371.9 591.4 370.0 C589.7 368.1 587.9 366.1 586.0 364.3 C584.1 362.6 582.0 361.1 580.0 359.6 C578.0 358.0 576.0 356.4 574.0 355.1 C572.0 353.8 570.0 352.8 568.0 351.8 C566.0 350.7 564.0 349.6 562.0 348.8 C560.0 347.9 558.0 347.2 556.0 346.7 C554.0 346.1 552.0 345.6 550.0 345.3 C548.0 345.1 546.0 345.1 544.0 345.0 C542.0 344.9 540.0 344.9 538.0 345.0 C536.0 345.1 534.0 345.1 532.0 345.4Z" fill="#e8744a"/><path d="M437.0 508.4 C435.3 508.7 433.0 509.1 431.0 509.6 C429.0 510.0 427.0 510.4 425.0 511.0 C423.0 511.6 421.0 512.3 419.0 513.1 C417.0 513.9 414.7 514.7 413.0 516.0 C411.3 517.3 409.7 519.2 408.6 521.0 C407.4 522.8 406.8 525.0 405.9 527.0 C405.0 529.0 404.2 531.0 403.2 533.0 C402.3 535.0 401.2 537.0 400.2 539.0 C399.2 541.0 398.0 543.0 397.3 545.0 C396.6 547.0 396.3 549.0 396.0 551.0 C395.7 553.0 395.8 555.0 395.7 557.0 C395.5 559.0 395.2 561.0 395.0 563.0 C394.8 565.0 394.9 567.0 394.7 569.0 C394.4 571.0 393.8 573.0 393.6 575.0 C393.3 577.0 392.7 579.2 393.0 581.0 C393.3 582.8 394.0 584.8 395.3 585.8 C396.7 586.8 399.1 586.8 401.0 587.0 C402.9 587.2 405.0 587.0 407.0 587.0 C409.0 587.0 411.0 587.0 413.0 587.0 C415.0 587.0 417.0 586.9 419.0 587.0 C421.0 587.1 423.0 587.3 425.0 587.6 C427.0 587.8 429.0 588.1 431.0 588.4 C433.0 588.8 435.0 589.2 437.0 589.6 C439.0 589.9 441.0 590.0 443.0 590.3 C445.0 590.7 447.0 591.2 449.0 591.8 C451.0 592.3 453.0 593.0 455.0 593.6 C457.0 594.1 459.0 594.5 461.0 594.9 C463.0 595.3 465.0 595.7 467.0 596.1 C469.0 596.6 471.0 597.1 473.0 597.6 C475.0 598.0 477.0 598.2 479.0 598.7 C481.0 599.1 483.0 599.6 485.0 600.1 C487.0 600.6 489.0 601.1 491.0 601.6 C493.0 602.0 495.0 602.1 497.0 602.6 C499.0 603.0 501.0 603.5 503.0 604.0 C505.0 604.5 507.0 605.2 509.0 605.6 C511.0 605.9 513.0 605.8 515.0 606.0 C517.0 606.2 519.0 606.4 521.0 606.6 C523.0 606.7 525.0 606.9 527.0 607.0 C529.0 607.1 531.0 607.0 533.0 607.0 C535.0 607.0 537.0 607.0 539.0 606.9 C541.0 606.8 543.0 606.5 545.0 606.2 C547.0 605.9 549.0 605.8 551.0 605.2 C553.0 604.7 555.0 603.8 557.0 603.0 C559.0 602.2 561.0 601.2 563.0 600.2 C565.0 599.2 567.1 598.1 569.0 596.9 C570.9 595.7 573.1 594.7 574.6 593.2 C576.0 591.7 576.7 589.9 577.7 588.0 C578.6 586.1 579.4 584.0 580.2 582.0 C581.0 580.0 582.1 578.0 582.6 576.0 C583.0 574.0 583.0 572.0 582.8 570.0 C582.6 568.0 582.0 566.0 581.2 564.0 C580.5 562.0 579.3 560.0 578.2 558.0 C577.1 556.0 575.8 554.0 574.6 552.0 C573.3 550.0 572.2 548.0 570.9 546.0 C569.6 544.0 568.3 542.0 566.7 540.0 C565.0 538.0 562.9 535.9 561.0 534.0 C559.1 532.1 557.0 530.0 555.0 528.6 C553.0 527.1 551.0 526.2 549.0 525.6 C547.0 524.9 545.0 525.0 543.0 524.7 C541.0 524.4 539.0 524.0 537.0 523.7 C535.0 523.4 533.0 523.1 531.0 522.8 C529.0 522.5 527.0 522.2 525.0 521.9 C523.0 521.6 521.0 521.3 519.0 521.0 C517.0 520.7 515.0 520.5 513.0 520.1 C511.0 519.8 509.0 519.3 507.0 518.9 C505.0 518.4 503.0 517.9 501.0 517.4 C499.0 517.0 497.0 516.8 495.0 516.3 C493.0 515.9 491.0 515.3 489.0 514.8 C487.0 514.3 485.0 513.9 483.0 513.4 C481.0 513.0 479.0 512.8 477.0 512.3 C475.0 511.9 473.0 511.4 471.0 510.9 C469.0 510.4 467.0 509.9 465.0 509.4 C463.0 509.0 461.0 508.6 459.0 508.3 C457.0 508.1 455.0 508.1 453.0 508.0 C451.0 507.9 449.0 508.0 447.0 508.0 C445.0 508.0 442.7 507.9 441.0 508.0 C439.3 508.1 438.7 508.2 437.0 508.4Z" fill="#c4502f"/></g>
</g></g><text x="236" y="120" font-family="Playfair Display,serif" font-size="64" fill="#f3e3bf" text-anchor="start">Invitaciones Web</text><text x="236" y="162" font-family="Montserrat,sans-serif" font-weight="500" font-size="20" letter-spacing="11" fill="#e0925f" text-anchor="start">COLOMBIA</text></svg>